<?xml version="1.0" encoding="UTF-8"?>
<svg xmlns="http://www.w3.org/2000/svg" xmlns:xlink="http://www.w3.org/1999/xlink" width="100px" height="100px" viewBox="0 0 100 100" version="1.1">
<g id="surface1">
<path style=" stroke:none;fill-rule:nonzero;fill:rgb(0%,0%,0%);fill-opacity:1;" d="M 58.984375 7.226562 L 53.320312 13.242188 L 51.992188 18.320312 L 50.664062 23.4375 L 45.859375 23.4375 C 36.40625 23.4375 27.5 24.648438 27.070312 26.015625 C 26.914062 26.523438 29.140625 27.539062 32.226562 28.28125 C 41.132812 30.46875 58.28125 30.195312 66.054688 27.773438 C 69.023438 26.835938 70 26.054688 68.867188 25.46875 C 67.539062 24.804688 64.648438 24.257812 59.765625 23.828125 C 57.070312 23.59375 54.84375 23.320312 54.726562 23.242188 C 54.648438 23.164062 54.960938 21.875 55.390625 20.429688 C 55.820312 18.984375 56.40625 17.03125 56.640625 16.09375 C 56.953125 14.804688 58.046875 13.320312 61.210938 9.84375 C 63.515625 7.34375 65.46875 5.195312 65.585938 5.078125 C 65.703125 4.960938 66.171875 4.492188 66.5625 3.984375 C 67.304688 3.125 67.304688 3.085938 66.5625 2.539062 C 64.726562 1.09375 64.882812 0.976562 58.984375 7.226562 Z M 58.984375 7.226562 "/>
<path style=" stroke:none;fill-rule:nonzero;fill:rgb(0%,0%,0%);fill-opacity:1;" d="M 66.914062 28.554688 C 57.34375 31.679688 35.9375 31.523438 27.578125 28.28125 C 26.875 28.007812 26.835938 28.164062 27.109375 31.09375 C 27.96875 41.09375 28.75 48.398438 28.945312 48.59375 C 29.0625 48.710938 29.570312 47.96875 30.039062 46.875 C 31.054688 44.648438 33.945312 41.25 35.585938 40.429688 C 38.242188 39.023438 41.875 40.625 41.875 43.125 C 41.914062 45 40.976562 45.117188 39.570312 43.476562 L 38.320312 41.992188 L 36.914062 42.734375 C 33.28125 44.6875 29.101562 55.273438 31.71875 55.78125 C 32.96875 56.015625 36.171875 52.539062 37.1875 49.882812 C 37.96875 47.8125 38.28125 47.460938 39.0625 47.460938 C 40.507812 47.460938 40.46875 48.515625 38.867188 53.554688 C 36.484375 60.976562 36.328125 61.328125 35.507812 61.328125 C 34.414062 61.328125 34.21875 60.46875 34.882812 58.242188 L 35.429688 56.328125 L 33.867188 57.460938 C 32.851562 58.203125 31.835938 58.59375 30.976562 58.59375 C 29.648438 58.59375 29.609375 58.59375 29.84375 60.039062 C 29.960938 60.859375 30.234375 63.710938 30.46875 66.40625 C 31.132812 73.671875 31.132812 73.75 32.421875 74.414062 C 34.414062 75.429688 37.734375 76.09375 43.242188 76.601562 C 52.1875 77.34375 62.421875 75.742188 63.710938 73.398438 C 63.90625 72.96875 64.414062 69.804688 64.84375 66.328125 C 65.273438 62.8125 65.703125 59.023438 65.859375 57.851562 L 66.132812 55.703125 L 64.570312 56.992188 C 62.695312 58.515625 60.195312 59.023438 59.414062 58.046875 C 58.671875 57.1875 59.101562 55.898438 60.9375 53.632812 C 62.734375 51.328125 62.851562 50.9375 61.5625 51.640625 C 59.570312 52.734375 57.695312 55.898438 55.820312 61.289062 C 54.921875 63.90625 54.453125 64.453125 53.28125 64.453125 C 51.992188 64.453125 52.03125 63.242188 53.515625 60 C 54.6875 57.34375 54.648438 57.03125 53.359375 58.007812 C 52.382812 58.75 50.976562 58.75 50.3125 58.085938 C 49.921875 57.65625 49.6875 57.65625 48.828125 58.085938 C 47.421875 58.828125 46.445312 58.710938 46.210938 57.8125 C 45.9375 56.875 46.015625 56.875 44.453125 57.8125 C 42.695312 58.867188 41.171875 58.828125 40.429688 57.65625 C 39.84375 56.796875 39.882812 56.484375 40.898438 53.476562 C 42.03125 50.039062 43.28125 48.28125 44.296875 48.671875 C 45.15625 49.023438 45.078125 49.804688 43.90625 52.1875 C 43.359375 53.320312 42.96875 54.609375 43.046875 55.117188 C 43.164062 55.976562 43.164062 55.976562 44.492188 54.882812 C 45.234375 54.257812 46.289062 52.65625 46.875 51.328125 C 48.125 48.554688 48.671875 48.085938 49.53125 48.945312 C 50.078125 49.53125 50.039062 49.804688 49.101562 52.226562 C 47.890625 55.3125 47.8125 55.859375 48.632812 55.859375 C 49.453125 55.859375 50.039062 54.726562 52.539062 48.242188 C 53.789062 45 55 42.148438 55.195312 41.875 C 55.78125 41.132812 57.421875 41.289062 57.421875 42.070312 C 57.421875 42.460938 56.25 45.625 54.84375 49.140625 C 53.4375 52.65625 52.34375 55.585938 52.460938 55.703125 C 52.929688 56.171875 56.132812 53.125 57.03125 51.367188 C 57.96875 49.492188 59.179688 48.671875 59.726562 49.570312 C 59.921875 49.84375 60.46875 49.765625 61.484375 49.257812 C 63.046875 48.4375 64.296875 48.59375 64.960938 49.6875 C 65.546875 50.585938 65 52.03125 63.203125 54.335938 C 61.679688 56.210938 61.640625 56.367188 62.695312 55.585938 C 66.445312 52.890625 66.289062 53.203125 67.148438 46.09375 C 68.515625 34.765625 69.21875 28.515625 69.0625 28.203125 C 68.984375 28.046875 68.046875 28.203125 66.914062 28.554688 Z M 66.914062 28.554688 "/>
<path style=" stroke:none;fill-rule:nonzero;fill:rgb(0%,0%,0%);fill-opacity:1;" d="M 32.8125 75.625 C 32.8125 75.703125 33.320312 76.601562 33.945312 77.617188 C 35 79.375 35.078125 79.882812 35.507812 86.71875 C 35.78125 90.703125 36.171875 94.140625 36.40625 94.414062 C 37.03125 95.15625 42.539062 97.1875 45.46875 97.695312 C 47.539062 98.085938 48.710938 98.085938 50.820312 97.734375 C 53.203125 97.304688 57.34375 95.742188 58.90625 94.609375 C 59.296875 94.335938 59.570312 92.109375 59.921875 86.640625 C 60.390625 79.570312 60.507812 78.945312 61.484375 77.265625 L 62.539062 75.46875 L 60.898438 76.054688 C 58.4375 76.875 51.835938 77.734375 47.65625 77.734375 C 43.320312 77.734375 36.835938 76.914062 34.492188 76.054688 C 33.554688 75.742188 32.8125 75.546875 32.8125 75.625 Z M 32.8125 75.625 "/>
</g>
</svg>
