<?xml version="1.0" standalone="no"?>
<!DOCTYPE svg PUBLIC "-//W3C//DTD SVG 20010904//EN"
 "http://www.w3.org/TR/2001/REC-SVG-20010904/DTD/svg10.dtd">
<svg version="1.0" xmlns="http://www.w3.org/2000/svg"
 width="256.000000pt" height="256.000000pt" viewBox="0 0 256.000000 256.000000"
 preserveAspectRatio="xMidYMid meet">
<metadata>
Created by potrace 1.16, written by Peter Selinger 2001-2019
</metadata>
<g transform="translate(0.000000,256.000000) scale(0.100000,-0.100000)"
fill="#000000" stroke="none">
<path d="M1510 2375 l-145 -154 -34 -130 -34 -131 -123 0 c-242 0 -470 -31
-481 -66 -4 -13 53 -39 132 -58 228 -56 667 -49 866 13 76 24 101 44 72 59
-34 17 -108 31 -233 42 -69 6 -126 13 -129 15 -2 2 6 35 17 72 11 37 26 87 32
111 8 33 36 71 117 160 59 64 109 119 112 122 3 3 15 15 25 28 19 22 19 23 0
37 -47 37 -43 40 -194 -120z"/>
<path d="M1713 1829 c-245 -80 -793 -76 -1007 7 -18 7 -19 3 -12 -72 22 -256
42 -443 47 -448 3 -3 16 16 28 44 26 57 100 144 142 165 68 36 161 -5 161 -69
1 -48 -23 -51 -59 -9 l-32 38 -36 -19 c-93 -50 -200 -321 -133 -334 32 -6 114
83 140 151 20 53 28 62 48 62 37 0 36 -27 -5 -156 -61 -190 -65 -199 -86 -199
-28 0 -33 22 -16 79 l14 49 -40 -29 c-26 -19 -52 -29 -74 -29 -34 0 -35 0 -29
-37 3 -21 10 -94 16 -163 17 -186 17 -188 50 -205 51 -26 136 -43 277 -56 229
-19 491 22 524 82 5 11 18 92 29 181 11 90 22 187 26 217 l7 55 -40 -33 c-48
-39 -112 -52 -132 -27 -19 22 -8 55 39 113 46 59 49 69 16 51 -51 -28 -99
-109 -147 -247 -23 -67 -35 -81 -65 -81 -33 0 -32 31 6 114 30 68 29 76 -4 51
-25 -19 -61 -19 -78 -2 -10 11 -16 11 -38 0 -36 -19 -61 -16 -67 7 -7 24 -5
24 -45 0 -45 -27 -84 -26 -103 4 -15 22 -14 30 12 107 29 88 61 133 87 123 22
-9 20 -29 -10 -90 -14 -29 -24 -62 -22 -75 3 -22 3 -22 37 6 19 16 46 57 61
91 32 71 46 83 68 61 14 -15 13 -22 -11 -84 -31 -79 -33 -93 -12 -93 21 0 36
29 100 195 32 83 63 156 68 163 15 19 57 15 57 -5 0 -10 -30 -91 -66 -181 -36
-90 -64 -165 -61 -168 12 -12 94 66 117 111 24 48 55 69 69 46 5 -7 19 -5 45
8 40 21 72 17 89 -11 15 -23 1 -60 -45 -119 -39 -48 -40 -52 -13 -32 96 69 92
61 114 243 35 290 53 450 49 458 -2 4 -26 0 -55 -9z"/>
<path d="M840 624 c0 -2 13 -25 29 -51 27 -45 29 -58 40 -233 7 -102 17 -190
23 -197 16 -19 157 -71 232 -84 53 -10 83 -10 137 -1 61 11 167 51 207 80 10
7 17 64 26 204 12 181 15 197 40 240 l27 46 -42 -15 c-63 -21 -232 -43 -339
-43 -111 0 -277 21 -337 43 -24 8 -43 13 -43 11z"/>
</g>
</svg>
