<?xml version="1.0" encoding="UTF-8"?>
<svg xmlns="http://www.w3.org/2000/svg" xmlns:xlink="http://www.w3.org/1999/xlink" width="125px" height="100px" viewBox="0 0 125 100" version="1.1">
<defs>
<linearGradient id="linear0" gradientUnits="userSpaceOnUse" x1="361.03" y1="633.85" x2="691.41" y2="371.6" gradientTransform="matrix(0.33038,0,0,-0.331917,-106.654816,220.605417)">
<stop offset="0" style="stop-color:rgb(56.470588%,7.45098%,99.607843%);stop-opacity:1;"/>
<stop offset="1" style="stop-color:rgb(40%,6.27451%,94.901961%);stop-opacity:1;"/>
</linearGradient>
<linearGradient id="linear1" gradientUnits="userSpaceOnUse" x1="462.63" y1="581.7" x2="536.48" y2="456.81" gradientTransform="matrix(1,0,0,-1,0,1026)">
<stop offset="0" style="stop-color:rgb(100%,100%,100%);stop-opacity:1;"/>
<stop offset="1" style="stop-color:rgb(94.509804%,89.803922%,98.823529%);stop-opacity:1;"/>
</linearGradient>
</defs>
<g id="surface1">
<path style=" stroke:none;fill-rule:nonzero;fill:url(#linear0);" d="M 13.824219 13.066406 C 13.589844 6.269531 18.863281 0 25.988281 0 L 99.019531 0 C 106.148438 0 111.417969 6.269531 111.183594 13.066406 C 110.957031 19.601562 111.25 28.058594 113.371094 34.957031 C 115.492188 41.855469 119.085938 46.242188 124.957031 46.8125 L 124.957031 53.1875 C 119.085938 53.746094 115.496094 58.121094 113.371094 65.042969 C 111.246094 71.964844 110.960938 80.398438 111.183594 86.949219 C 111.417969 93.746094 106.148438 100.015625 99.019531 100.015625 L 25.988281 100.015625 C 18.863281 100.015625 13.589844 93.746094 13.824219 86.949219 C 14.050781 80.417969 13.753906 71.957031 11.636719 65.042969 C 9.519531 58.128906 5.917969 53.757812 0.0429688 53.1875 L 0.0429688 46.8125 C 5.914062 46.253906 9.511719 41.878906 11.636719 34.957031 C 13.765625 28.035156 14.050781 19.601562 13.824219 13.066406 Z M 13.824219 13.066406 "/>
<path style="fill-rule:nonzero;fill:url(#linear1);stroke-width:1;stroke-linecap:butt;stroke-linejoin:miter;stroke:rgb(100%,100%,100%);stroke-opacity:1;stroke-miterlimit:4;" d="M 520.205501 592.086344 C 555.132086 592.086344 576.201542 574.98635 576.201542 546.776656 C 576.201542 525.46345 561.197535 510.02285 538.886613 507.57495 L 538.886613 506.692294 C 555.273967 504.020787 568.126099 488.815562 568.126099 471.821487 C 568.126099 447.613169 549.019342 431.819506 519.886267 431.819506 L 454.325024 431.819506 L 454.325024 592.086344 Z M 479.804641 452.167675 L 513.714406 452.167675 C 532.135401 452.167675 542.611011 460.394031 542.611011 475.269731 C 542.611011 491.145775 530.444642 500.031181 508.370189 500.031181 L 479.804641 500.031181 Z M 479.804641 571.773481 L 479.804641 519.002406 L 513.477936 519.002406 C 537.597852 519.002406 550.107103 527.876044 550.107103 545.211413 C 550.107103 562.535012 537.952557 571.773481 515.003166 571.773481 Z M 479.804641 571.773481 " transform="matrix(0.33038,0,0,0.331917,-106.654816,-119.941583)"/>
</g>
</svg>
