<?xml version="1.0" encoding="UTF-8"?>
<svg xmlns="http://www.w3.org/2000/svg" xmlns:xlink="http://www.w3.org/1999/xlink" width="100px" height="80px" viewBox="0 0 100 80" version="1.1">
<defs>
<linearGradient id="linear0" gradientUnits="userSpaceOnUse" x1="361.03" y1="633.85" x2="691.41" y2="371.6" gradientTransform="matrix(0.264304,0,0,-0.265534,-85.323853,176.484334)">
<stop offset="0" style="stop-color:rgb(56.470588%,7.45098%,99.607843%);stop-opacity:1;"/>
<stop offset="1" style="stop-color:rgb(40%,6.27451%,94.901961%);stop-opacity:1;"/>
</linearGradient>
<linearGradient id="linear1" gradientUnits="userSpaceOnUse" x1="462.63" y1="581.7" x2="536.48" y2="456.81" gradientTransform="matrix(1,0,0,-1,0,1026)">
<stop offset="0" style="stop-color:rgb(100%,100%,100%);stop-opacity:1;"/>
<stop offset="1" style="stop-color:rgb(94.509804%,89.803922%,98.823529%);stop-opacity:1;"/>
</linearGradient>
</defs>
<g id="surface1">
<path style=" stroke:none;fill-rule:nonzero;fill:url(#linear0);" d="M 11.058594 10.453125 C 10.871094 5.015625 15.089844 0 20.789062 0 L 79.214844 0 C 84.917969 0 89.132812 5.015625 88.945312 10.453125 C 88.765625 15.679688 89 22.445312 90.695312 27.964844 C 92.394531 33.484375 95.269531 36.992188 99.964844 37.449219 L 99.964844 42.550781 C 95.269531 42.996094 92.398438 46.496094 90.695312 52.035156 C 88.996094 57.570312 88.769531 64.320312 88.945312 69.558594 C 89.132812 74.996094 84.917969 80.011719 79.214844 80.011719 L 20.789062 80.011719 C 15.089844 80.011719 10.871094 74.996094 11.058594 69.558594 C 11.242188 64.335938 11.003906 57.566406 9.308594 52.035156 C 7.617188 46.503906 4.734375 43.007812 0.0351562 42.550781 L 0.0351562 37.449219 C 4.730469 37.003906 7.609375 33.503906 9.308594 27.964844 C 11.011719 22.429688 11.242188 15.679688 11.058594 10.453125 Z M 11.058594 10.453125 "/>
<path style="fill-rule:nonzero;fill:url(#linear1);stroke-width:1;stroke-linecap:butt;stroke-linejoin:miter;stroke:rgb(100%,100%,100%);stroke-opacity:1;stroke-miterlimit:4;" d="M 520.203332 592.086619 C 555.127014 592.086619 576.202414 574.992502 576.202414 546.77691 C 576.202414 525.460752 561.20134 510.028971 538.884472 507.572244 L 538.884472 506.689587 C 555.274808 504.026906 568.132871 488.81579 568.132871 471.824649 C 568.132871 447.610435 549.023129 431.825592 519.892965 431.825592 L 454.331623 431.825592 L 454.331623 592.086619 Z M 479.811279 452.170828 L 513.715183 452.170828 C 532.130294 452.170828 542.608877 460.394245 542.608877 475.26701 C 542.608877 491.140119 530.445445 500.025529 508.365047 500.025529 L 479.811279 500.025529 Z M 479.811279 571.770805 L 479.811279 519.002647 L 513.478713 519.002647 C 537.598666 519.002647 550.102024 527.873347 550.102024 545.21755 C 550.102024 562.532332 537.953371 571.770805 515.00099 571.770805 Z M 479.811279 571.770805 " transform="matrix(0.264304,0,0,0.265534,-85.323853,-95.953266)"/>
</g>
</svg>
