<?xml version="1.0" encoding="UTF-8"?>
<svg xmlns="http://www.w3.org/2000/svg" xmlns:xlink="http://www.w3.org/1999/xlink" width="41px" height="90px" viewBox="0 0 41 90" version="1.1">
<g id="surface1">
<path style=" stroke:none;fill-rule:nonzero;fill:rgb(83.137255%,23.921569%,28.235294%);fill-opacity:1;" d="M 28.238281 21.910156 L 29.929688 15.269531 L 39.296875 5.476562 L 36.828125 3.390625 L 26.910156 13.816406 L 24.949219 21.753906 C 23.46875 21.703125 21.992188 21.679688 20.511719 21.679688 C 10.066406 21.679688 1.597656 22.863281 1.597656 24.320312 C 1.597656 25.777344 10.066406 26.960938 20.511719 26.960938 C 30.957031 26.960938 39.421875 25.777344 39.421875 24.320312 C 39.421875 23.246094 34.832031 22.320312 28.238281 21.910156 M 30.78125 84.199219 L 31.585938 70.859375 L 33.8125 67.085938 C 33.8125 67.085938 28.746094 69.144531 20.269531 69.144531 C 11.789062 69.144531 6.800781 67.125 6.800781 67.125 L 9.292969 71.238281 L 10.175781 84.199219 C 10.175781 85.585938 14.789062 86.710938 20.480469 86.710938 C 26.167969 86.710938 30.78125 85.585938 30.78125 84.199219 "/>
<path style=" stroke:none;fill-rule:nonzero;fill:rgb(100%,100%,100%);fill-opacity:1;" d="M 27.253906 25.628906 C 27.253906 25.628906 26.890625 25.710938 25.8125 25.714844 C 24.734375 25.71875 23.96875 25.707031 23.664062 25.433594 C 23.582031 25.359375 23.535156 25.210938 23.535156 25.109375 C 23.539062 24.921875 23.671875 24.808594 23.84375 24.738281 L 24.007812 24.996094 C 23.9375 25.019531 23.898438 25.046875 23.898438 25.078125 C 23.894531 25.222656 25 25.320312 25.84375 25.308594 C 26.6875 25.300781 27.707031 25.230469 27.707031 25.089844 C 27.707031 25.046875 27.628906 25.003906 27.496094 24.972656 L 27.65625 24.722656 C 27.875 24.789062 28.066406 24.917969 28.066406 25.144531 C 28.066406 25.527344 27.574219 25.585938 27.253906 25.628906 "/>
<path style=" stroke:none;fill-rule:nonzero;fill:rgb(83.137255%,23.921569%,28.235294%);fill-opacity:1;" d="M 30.332031 51.617188 C 30.109375 49.496094 35.003906 46.421875 33.746094 46.324219 C 31.042969 46.476562 29.699219 49.472656 28.335938 52.609375 C 27.839844 53.757812 26.132812 58.65625 25.011719 58.054688 C 23.894531 57.449219 26.464844 53.421875 27.183594 51.027344 C 26.351562 51.632812 23.304688 53.984375 22.519531 51.78125 C 21.257812 52.847656 18.5625 53.425781 18.867188 50.628906 C 18.195312 51.808594 16.6875 53.457031 14.878906 52.773438 C 12.503906 51.871094 16.253906 44.355469 17.1875 44.734375 C 18.121094 45.113281 17 46.828125 16.707031 47.492188 C 16.058594 48.953125 15.3125 50.792969 15.8125 51.171875 C 16.667969 51.816406 18.992188 48.730469 19.042969 48.664062 C 19.476562 48.09375 20.714844 44.359375 21.714844 44.789062 C 22.710938 45.21875 19.222656 50.144531 20.527344 51.121094 C 20.789062 51.320312 21.867188 51 22.519531 50.296875 C 22.945312 49.84375 22.800781 48.835938 24.210938 45.488281 C 25.621094 42.144531 26.882812 37.980469 27.847656 38.296875 C 28.816406 38.617188 28.019531 40.753906 27.671875 41.550781 C 26.042969 45.289062 23.222656 51.46875 24.554688 51 C 25.882812 50.53125 26.574219 50.503906 27.875 48.992188 C 29.175781 47.480469 29.117188 44.988281 29.984375 45.039062 C 30.851562 45.09375 30.707031 45.894531 30.496094 46.5 C 31.351562 45.53125 34.542969 43.488281 35.316406 45.511719 C 36.230469 47.90625 30.746094 51.371094 32.113281 51.191406 C 33.445312 51.019531 35.605469 49.664062 36.527344 48.425781 L 39.066406 25.769531 C 39.066406 25.769531 36.511719 27.867188 20.265625 27.867188 C 4.019531 27.867188 1.730469 25.8125 1.730469 25.8125 L 3.890625 46.496094 C 5.039062 43.257812 7.761719 36.710938 12.054688 36.929688 C 14.007812 37.03125 16.613281 40.761719 14.378906 40.890625 C 13.433594 40.945312 13.339844 39.027344 12.21875 38.746094 C 11.414062 38.542969 10.289062 39.195312 9.5625 39.898438 C 8.113281 41.308594 4.996094 46.867188 5.40625 49.636719 C 5.933594 53.167969 10.316406 48.410156 11.058594 46.996094 C 11.578125 46 11.933594 43.050781 13.074219 43.359375 C 14.214844 43.671875 12.976562 46.714844 12.148438 49.40625 C 11.214844 52.425781 10.726562 55.613281 9.5625 55.25 C 8.394531 54.882812 10.292969 50.980469 10.226562 50.296875 C 9.128906 51.300781 7.109375 53.84375 4.527344 52.585938 L 5.871094 65.429688 C 5.871094 65.429688 9.4375 68.226562 20.179688 68.226562 C 30.921875 68.226562 34.617188 65.472656 34.617188 65.472656 L 36.285156 50.597656 C 34.921875 51.914062 30.605469 54.257812 30.332031 51.617188 M 39.28125 5.496094 C 39.515625 5.226562 39.15625 4.535156 38.480469 3.953125 C 37.804688 3.371094 37.066406 3.117188 36.828125 3.390625 C 36.59375 3.660156 36.953125 4.351562 37.628906 4.933594 C 38.304688 5.515625 39.042969 5.765625 39.28125 5.496094 "/>
</g>
</svg>
