<?xml version="1.0" encoding="UTF-8"?>
<svg xmlns="http://www.w3.org/2000/svg" xmlns:xlink="http://www.w3.org/1999/xlink" width="1131pt" height="2500pt" viewBox="0 0 1131 2500" version="1.1">
<g id="surface1">
<path style=" stroke:none;fill-rule:nonzero;fill:rgb(83.137512%,24.073792%,28.35083%);fill-opacity:1;" d="M 779.125 608.589844 L 825.796875 424.113281 L 1084.253906 152.15625 L 1016.132812 94.136719 L 742.503906 383.835938 L 688.3125 604.238281 C 647.53125 602.871094 606.726562 602.195312 565.917969 602.203125 C 277.738281 602.203125 44.117188 635.046875 44.117188 675.550781 C 44.117188 716.0625 277.738281 748.898438 565.917969 748.898438 C 854.097656 748.898438 1087.710938 716.0625 1087.710938 675.550781 C 1087.710938 645.722656 961.007812 620.050781 779.125 608.589844 M 849.265625 2338.824219 L 871.5 1968.3125 L 932.898438 1863.507812 C 932.898438 1863.507812 793.15625 1920.671875 559.210938 1920.671875 C 325.261719 1920.671875 187.640625 1864.5625 187.640625 1864.5625 L 256.445312 1978.894531 L 280.789062 2338.824219 C 280.789062 2377.410156 408.042969 2408.691406 565.027344 2408.691406 C 722.007812 2408.691406 849.265625 2377.410156 849.265625 2338.824219 "/>
<path style=" stroke:none;fill-rule:nonzero;fill:rgb(100%,100%,100%);fill-opacity:1;" d="M 751.976562 711.902344 C 751.976562 711.902344 741.871094 714.167969 712.136719 714.292969 C 682.394531 714.417969 661.277344 714.101562 652.867188 706.441406 C 650.601562 704.382812 649.367188 700.300781 649.378906 697.53125 C 649.402344 692.269531 653.140625 689.167969 657.902344 687.222656 L 662.402344 694.289062 C 660.445312 694.964844 659.328125 695.761719 659.324219 696.613281 C 659.304688 700.613281 689.734375 703.351562 713.003906 703.054688 C 736.28125 702.769531 764.40625 700.851562 764.429688 696.910156 C 764.429688 695.71875 762.300781 694.59375 758.601562 693.710938 L 763.085938 686.695312 C 769.117188 688.570312 774.378906 692.1875 774.367188 698.445312 C 774.308594 709.089844 760.765625 710.710938 751.976562 711.902344 "/>
<path style=" stroke:none;fill-rule:nonzero;fill:rgb(83.137512%,24.073792%,28.35083%);fill-opacity:1;" d="M 836.835938 1433.816406 C 830.710938 1374.878906 965.742188 1289.527344 931.085938 1286.792969 C 856.484375 1291.058594 819.355469 1374.21875 781.820312 1461.320312 C 768.066406 1493.242188 721.003906 1629.359375 690.132812 1612.601562 C 659.273438 1595.851562 730.144531 1483.917969 750.007812 1417.445312 C 727.085938 1434.253906 643.03125 1499.558594 621.371094 1438.398438 C 586.542969 1467.976562 512.125 1484.003906 520.523438 1406.304688 C 501.992188 1439.125 460.410156 1484.945312 410.5 1465.90625 C 344.953125 1440.90625 448.480469 1232.109375 474.222656 1242.644531 C 499.96875 1253.171875 469.027344 1300.738281 460.921875 1319.207031 C 443.101562 1359.855469 422.511719 1410.957031 436.265625 1421.417969 C 459.828125 1439.335938 523.949219 1353.621094 525.378906 1351.734375 C 537.367188 1335.890625 571.535156 1232.238281 599.074219 1244.136719 C 626.609375 1256.042969 530.386719 1392.902344 566.363281 1420.058594 C 573.621094 1425.542969 603.308594 1416.679688 621.371094 1397.140625 C 633.054688 1384.5 629.035156 1356.503906 667.988281 1263.613281 C 706.941406 1170.722656 741.65625 1055.042969 768.371094 1063.855469 C 795.085938 1072.667969 773.066406 1132.039062 763.480469 1154.171875 C 718.511719 1258.050781 640.746094 1429.671875 677.421875 1416.679688 C 714.09375 1403.691406 733.191406 1402.929688 769.105469 1360.90625 C 805.015625 1318.878906 803.359375 1249.65625 827.296875 1251.128906 C 851.238281 1252.601562 847.222656 1274.796875 841.414062 1291.699219 C 864.976562 1264.738281 953.089844 1207.960938 974.359375 1264.195312 C 999.558594 1330.769531 848.296875 1426.933594 886.011719 1422.03125 C 922.78125 1417.25 982.355469 1379.519531 1007.789062 1345.210938 L 1077.804688 715.773438 C 1077.804688 715.773438 1007.351562 774.078125 559.140625 774.078125 C 110.925781 774.078125 47.765625 716.988281 47.765625 716.988281 L 107.371094 1291.515625 C 139.007812 1201.59375 214.140625 1019.710938 332.566406 1025.8125 C 386.4375 1028.59375 458.351562 1132.320312 396.75 1135.835938 C 370.675781 1137.320312 368.027344 1084.058594 337.148438 1076.238281 C 314.871094 1070.59375 283.851562 1088.707031 263.800781 1108.332031 C 223.820312 1147.460938 137.832031 1301.839844 149.195312 1378.804688 C 163.671875 1476.929688 284.601562 1344.710938 305.0625 1305.453125 C 319.472656 1277.800781 329.207031 1195.875 360.722656 1204.46875 C 392.242188 1213.066406 357.972656 1297.617188 335.128906 1372.371094 C 309.460938 1456.308594 295.96875 1544.851562 263.800781 1534.667969 C 231.632812 1524.492188 284.035156 1416.128906 282.136719 1397.140625 C 251.898438 1425.039062 196.195312 1495.667969 124.925781 1460.710938 L 161.945312 1817.488281 C 161.945312 1817.488281 260.332031 1895.222656 556.710938 1895.222656 C 853.09375 1895.222656 955.121094 1818.699219 955.121094 1818.699219 L 1001.089844 1405.464844 C 963.480469 1442.085938 844.453125 1507.117188 836.835938 1433.816406 M 1083.746094 152.695312 C 1090.242188 145.1875 1080.382812 125.988281 1061.71875 109.816406 C 1043.046875 93.652344 1022.644531 86.628906 1016.132812 94.136719 C 1009.632812 101.640625 1019.496094 120.839844 1038.167969 137.003906 C 1056.828125 153.171875 1077.242188 160.203125 1083.746094 152.695312 "/>
</g>
</svg>
