<?xml version="1.0" encoding="UTF-8"?>
<svg xmlns="http://www.w3.org/2000/svg" xmlns:xlink="http://www.w3.org/1999/xlink" width="89px" height="100px" viewBox="0 0 89 99" version="1.1">
<g id="surface1">
<path style=" stroke:none;fill-rule:nonzero;fill:rgb(80%,0%,0%);fill-opacity:1;" d="M 2.769531 24.960938 L 45.09375 0.511719 L 87.417969 24.960938 L 87.417969 73.824219 L 45.09375 98.277344 L 2.769531 73.824219 Z M 2.769531 24.960938 "/>
<path style=" stroke:none;fill-rule:nonzero;fill:rgb(100%,100%,100%);fill-opacity:1;" d="M 46.28125 49.375 L 85.636719 26.882812 L 87.21875 72.214844 L 46.28125 96.746094 Z M 46.28125 49.375 "/>
<path style=" stroke:none;fill-rule:nonzero;fill:rgb(80%,0%,0%);fill-opacity:1;" d="M 86.230469 25.511719 L 86.113281 73.550781 L 45.054688 97.175781 L 44.855469 49.960938 Z M 51.699219 53.886719 L 51.816406 85.441406 L 65.464844 77.554688 L 65.425781 53.769531 L 72.308594 49.726562 L 72.308594 73.589844 L 79.191406 69.585938 L 79.230469 37.636719 Z M 51.699219 53.886719 "/>
<path style=" stroke:none;fill-rule:nonzero;fill:rgb(56.862745%,1.960784%,1.960784%);fill-opacity:1;" d="M 47.78125 0.863281 C 45.882812 -0.195312 42.839844 -0.195312 40.941406 0.863281 L 3.441406 22.253906 C 1.542969 23.3125 0.0390625 25.980469 0.0390625 28.101562 L 0.0390625 70.878906 C 0.0390625 73.039062 1.582031 75.667969 3.441406 76.730469 L 40.941406 98.117188 C 42.839844 99.179688 45.882812 99.179688 47.78125 98.117188 L 85.28125 76.730469 C 87.179688 75.667969 88.683594 73 88.683594 70.878906 L 88.683594 28.101562 C 88.683594 25.941406 87.140625 23.3125 85.28125 22.253906 Z M 81.050781 23.234375 C 82.949219 24.292969 82.949219 26.058594 81.050781 27.121094 L 48.21875 45.839844 C 46.320312 46.902344 43.273438 46.902344 41.375 45.839844 L 8.070312 26.84375 C 6.171875 25.785156 6.171875 24.019531 8.070312 22.960938 L 40.902344 4.238281 C 42.800781 3.179688 45.84375 3.179688 47.742188 4.238281 Z M 2.964844 31.203125 C 2.964844 29.042969 4.507812 28.179688 6.367188 29.238281 L 39.949219 48.390625 C 41.851562 49.453125 43.351562 52.121094 43.351562 54.238281 L 43.351562 92.230469 C 43.351562 94.390625 41.808594 95.253906 39.949219 94.195312 L 6.367188 75.039062 C 4.46875 73.980469 2.964844 71.3125 2.964844 69.191406 Z M 49.761719 93.605469 C 47.863281 94.664062 46.359375 93.800781 46.359375 91.644531 L 46.359375 54.238281 C 46.359375 52.082031 47.902344 49.453125 49.761719 48.390625 L 82.355469 29.828125 C 84.253906 28.769531 85.757812 29.632812 85.757812 31.789062 L 85.757812 69.191406 C 85.757812 71.351562 84.214844 73.980469 82.355469 75.039062 Z M 49.761719 93.605469 "/>
</g>
</svg>
