<?xml version="1.0" encoding="UTF-8"?>
<svg xmlns="http://www.w3.org/2000/svg" xmlns:xlink="http://www.w3.org/1999/xlink" width="133px" height="100px" viewBox="0 0 133 100" version="1.1">
<g id="surface1">
<path style=" stroke:none;fill-rule:nonzero;fill:rgb(81.176471%,39.215686%,60.392157%);fill-opacity:1;" d="M 114.453125 57.449219 C 109.804688 57.472656 105.777344 58.59375 102.398438 60.261719 C 101.152344 57.785156 99.90625 55.625 99.699219 54.011719 C 99.464844 52.136719 99.179688 50.988281 99.464844 48.75 C 99.75 46.511719 101.046875 43.332031 101.046875 43.074219 C 101.023438 42.839844 100.761719 41.691406 98.085938 41.667969 C 95.414062 41.640625 93.101562 42.1875 92.839844 42.890625 C 92.582031 43.59375 92.0625 45.207031 91.722656 46.875 C 91.253906 49.324219 86.371094 57.996094 83.59375 62.550781 C 82.683594 60.78125 81.902344 59.21875 81.746094 57.96875 C 81.515625 56.09375 81.226562 54.949219 81.515625 52.707031 C 81.800781 50.46875 83.097656 47.292969 83.097656 47.03125 C 83.074219 46.796875 82.8125 45.652344 80.136719 45.625 C 77.460938 45.597656 75.152344 46.144531 74.890625 46.847656 C 74.632812 47.550781 74.34375 49.21875 73.773438 50.832031 C 73.226562 52.449219 66.734375 66.925781 65.046875 70.703125 C 64.1875 72.628906 63.433594 74.167969 62.890625 75.207031 C 62.34375 76.25 62.863281 75.285156 62.8125 75.390625 C 62.34375 76.277344 62.082031 76.769531 62.082031 76.769531 L 62.082031 76.796875 C 61.71875 77.449219 61.332031 78.074219 61.148438 78.074219 C 61.019531 78.074219 60.757812 76.328125 61.199219 73.933594 C 62.160156 68.90625 64.5 61.066406 64.472656 60.78125 C 64.472656 60.652344 64.914062 59.269531 62.96875 58.566406 C 61.070312 57.863281 60.394531 59.035156 60.238281 59.035156 C 60.082031 59.035156 59.953125 59.453125 59.953125 59.453125 C 59.953125 59.453125 62.058594 50.625 55.925781 50.625 C 52.082031 50.625 46.785156 54.816406 44.160156 58.644531 C 42.496094 59.558594 38.964844 61.484375 35.222656 63.542969 C 33.796875 64.324219 32.316406 65.15625 30.910156 65.910156 L 30.625 65.597656 C 23.195312 57.65625 9.457031 52.03125 10.027344 41.355469 C 10.234375 37.472656 11.585938 27.238281 36.417969 14.84375 C 56.757812 4.6875 73.046875 7.472656 75.878906 13.671875 C 79.902344 22.527344 67.175781 38.984375 46.03125 41.355469 C 37.976562 42.265625 33.742188 39.140625 32.679688 37.96875 C 31.5625 36.746094 31.40625 36.691406 30.992188 36.925781 C 30.316406 37.292969 30.730469 38.386719 30.992188 39.035156 C 31.613281 40.675781 34.210938 43.59375 38.628906 45.050781 C 42.496094 46.328125 51.953125 47.03125 63.382812 42.605469 C 76.191406 37.628906 86.191406 23.828125 83.253906 12.292969 C 80.269531 0.546875 60.835938 -3.308594 42.472656 3.230469 C 31.535156 7.136719 19.691406 13.230469 11.171875 21.222656 C 1.039062 30.703125 -0.570312 38.984375 0.105469 42.421875 C 2.46875 54.6875 19.328125 62.683594 26.082031 68.59375 C 25.742188 68.777344 25.429688 68.957031 25.144531 69.113281 C 21.769531 70.78125 8.910156 77.527344 5.6875 84.660156 C 2.050781 92.734375 6.261719 98.542969 9.066406 99.324219 C 17.742188 101.746094 26.625 97.394531 31.429688 90.234375 C 36.210938 83.074219 35.640625 73.777344 33.433594 69.53125 L 33.355469 69.375 L 36.003906 67.8125 C 37.71875 66.796875 39.40625 65.859375 40.886719 65.050781 C 40.054688 67.316406 39.457031 70 39.148438 73.90625 C 38.78125 78.488281 40.652344 84.425781 43.121094 86.769531 C 44.210938 87.785156 45.511719 87.8125 46.316406 87.8125 C 49.171875 87.8125 50.472656 85.441406 51.902344 82.605469 C 53.667969 79.140625 55.226562 75.128906 55.226562 75.128906 C 55.226562 75.128906 53.277344 85.988281 58.601562 85.988281 C 60.550781 85.988281 62.5 83.464844 63.382812 82.160156 L 63.382812 82.1875 C 63.382812 82.1875 63.433594 82.109375 63.539062 81.925781 C 63.648438 81.765625 63.75 81.601562 63.851562 81.433594 L 63.851562 81.378906 C 64.628906 80.027344 66.371094 76.925781 68.96875 71.796875 C 72.320312 65.183594 75.539062 56.902344 75.539062 56.902344 C 75.539062 56.902344 75.851562 58.933594 76.8125 62.265625 C 77.382812 64.246094 78.628906 66.40625 79.59375 68.515625 C 78.8125 69.609375 78.34375 70.234375 78.34375 70.234375 L 78.371094 70.261719 C 77.746094 71.09375 77.046875 71.980469 76.320312 72.863281 C 73.667969 76.042969 70.5 79.660156 70.085938 80.703125 C 69.589844 81.925781 69.695312 82.839844 70.65625 83.566406 C 71.359375 84.089844 72.605469 84.191406 73.929688 84.089844 C 76.320312 83.933594 77.980469 83.332031 78.8125 82.96875 C 80.113281 82.5 81.59375 81.796875 83.019531 80.753906 C 85.617188 78.828125 87.203125 76.09375 87.046875 72.449219 C 86.96875 70.441406 86.320312 68.464844 85.515625 66.589844 C 85.75 66.25 85.984375 65.910156 86.214844 65.546875 C 90.320312 59.53125 93.488281 52.917969 93.488281 52.917969 C 93.488281 52.917969 93.800781 54.949219 94.761719 58.28125 C 95.253906 59.972656 96.242188 61.824219 97.125 63.648438 C 93.28125 66.796875 90.867188 70.445312 90.035156 72.839844 C 88.503906 77.265625 89.695312 79.273438 91.957031 79.742188 C 92.96875 79.949219 94.425781 79.480469 95.515625 79.011719 C 96.867188 78.570312 98.503906 77.8125 100.007812 76.695312 C 102.609375 74.765625 105.101562 72.085938 104.972656 68.464844 C 104.894531 66.796875 104.453125 65.15625 103.855469 63.59375 C 107.128906 62.242188 111.359375 61.460938 116.738281 62.109375 C 128.296875 63.464844 130.585938 70.703125 130.144531 73.726562 C 129.703125 76.746094 127.285156 78.414062 126.480469 78.933594 C 125.675781 79.429688 125.414062 79.609375 125.492188 79.976562 C 125.597656 80.523438 125.960938 80.496094 126.660156 80.390625 C 127.621094 80.234375 132.742188 77.917969 132.949219 72.34375 C 133.257812 65.183594 126.480469 57.371094 114.453125 57.449219 Z M 25.300781 87.578125 C 21.484375 91.769531 16.105469 93.359375 13.820312 92.003906 C 11.351562 90.574219 12.3125 84.402344 17.015625 79.949219 C 19.871094 77.238281 23.585938 74.738281 26.027344 73.203125 C 26.574219 72.863281 27.40625 72.371094 28.390625 71.769531 C 28.546875 71.667969 28.652344 71.613281 28.652344 71.613281 C 28.835938 71.511719 29.042969 71.378906 29.25 71.25 C 30.988281 77.605469 29.328125 83.175781 25.300781 87.578125 Z M 53.226562 68.542969 C 51.902344 71.796875 49.09375 80.15625 47.40625 79.6875 C 45.953125 79.296875 45.070312 72.96875 47.121094 66.71875 C 48.160156 63.566406 50.367188 59.816406 51.667969 58.359375 C 53.773438 56.015625 56.058594 55.234375 56.628906 56.199219 C 57.304688 57.449219 54.058594 66.511719 53.226562 68.542969 Z M 76.265625 79.582031 C 75.695312 79.871094 75.175781 80.078125 74.941406 79.921875 C 74.761719 79.816406 75.175781 79.425781 75.175781 79.425781 C 75.175781 79.425781 78.058594 76.328125 79.203125 74.894531 C 79.851562 74.0625 80.632812 73.097656 81.460938 72.003906 L 81.460938 72.316406 C 81.460938 76.066406 77.878906 78.566406 76.265625 79.582031 Z M 94.035156 75.519531 C 93.621094 75.207031 93.671875 74.246094 95.074219 71.222656 C 95.621094 70.027344 96.867188 68.019531 99.023438 66.121094 C 99.28125 66.902344 99.4375 67.65625 99.410156 68.359375 C 99.386719 73.046875 96.0625 74.792969 94.035156 75.519531 Z M 94.035156 75.519531 "/>
</g>
</svg>
