<?xml version="1.0" encoding="UTF-8"?>
<svg xmlns="http://www.w3.org/2000/svg" xmlns:xlink="http://www.w3.org/1999/xlink" width="93px" height="70px" viewBox="0 0 93 70" version="1.1">
<g id="surface1">
<path style=" stroke:none;fill-rule:nonzero;fill:rgb(81.176471%,39.215686%,60.392157%);fill-opacity:1;" d="M 80.03125 40.214844 C 76.78125 40.230469 73.964844 41.015625 71.601562 42.183594 C 70.730469 40.449219 69.859375 38.9375 69.714844 37.808594 C 69.550781 36.496094 69.351562 35.691406 69.550781 34.125 C 69.75 32.558594 70.65625 30.332031 70.65625 30.152344 C 70.640625 29.988281 70.457031 29.183594 68.585938 29.167969 C 66.714844 29.148438 65.101562 29.53125 64.917969 30.023438 C 64.738281 30.515625 64.375 31.644531 64.136719 32.8125 C 63.808594 34.527344 60.394531 40.597656 58.453125 43.785156 C 57.816406 42.546875 57.269531 41.453125 57.164062 40.578125 C 57 39.265625 56.800781 38.464844 57 36.894531 C 57.199219 35.328125 58.105469 33.105469 58.105469 32.921875 C 58.089844 32.757812 57.90625 31.957031 56.035156 31.9375 C 54.164062 31.917969 52.546875 32.300781 52.367188 32.792969 C 52.183594 33.285156 51.984375 34.453125 51.585938 35.582031 C 51.203125 36.714844 46.664062 46.847656 45.484375 49.492188 C 44.882812 50.839844 44.355469 51.917969 43.976562 52.644531 C 43.59375 53.375 43.957031 52.699219 43.921875 52.773438 C 43.59375 53.394531 43.410156 53.738281 43.410156 53.738281 L 43.410156 53.757812 C 43.15625 54.214844 42.886719 54.652344 42.757812 54.652344 C 42.667969 54.652344 42.484375 53.429688 42.792969 51.753906 C 43.464844 48.234375 45.101562 42.746094 45.082031 42.546875 C 45.082031 42.457031 45.390625 41.488281 44.03125 40.996094 C 42.703125 40.503906 42.230469 41.324219 42.121094 41.324219 C 42.011719 41.324219 41.921875 41.617188 41.921875 41.617188 C 41.921875 41.617188 43.394531 35.4375 39.105469 35.4375 C 36.417969 35.4375 32.714844 38.371094 30.878906 41.050781 C 29.714844 41.691406 27.246094 43.039062 24.628906 44.480469 C 23.632812 45.027344 22.597656 45.609375 21.613281 46.136719 L 21.414062 45.917969 C 16.21875 40.359375 6.613281 36.421875 7.011719 28.949219 C 7.15625 26.230469 8.101562 19.066406 25.464844 10.390625 C 39.6875 3.28125 51.078125 5.230469 53.058594 9.570312 C 55.871094 15.769531 46.972656 27.289062 32.1875 28.949219 C 26.554688 29.585938 23.59375 27.398438 22.851562 26.578125 C 22.070312 25.722656 21.960938 25.683594 21.667969 25.847656 C 21.199219 26.105469 21.488281 26.871094 21.667969 27.324219 C 22.105469 28.472656 23.921875 30.515625 27.011719 31.535156 C 29.714844 32.429688 36.328125 32.921875 44.320312 29.824219 C 53.273438 26.339844 60.269531 16.679688 58.214844 8.605469 C 56.128906 0.382812 42.539062 -2.316406 29.699219 2.261719 C 22.050781 4.996094 13.769531 9.261719 7.808594 14.855469 C 0.726562 21.492188 -0.398438 27.289062 0.0742188 29.695312 C 1.726562 38.28125 13.515625 43.878906 18.238281 48.015625 C 18 48.144531 17.78125 48.269531 17.582031 48.378906 C 15.222656 49.546875 6.230469 54.269531 3.976562 59.261719 C 1.433594 64.914062 4.378906 68.980469 6.339844 69.527344 C 12.40625 71.222656 18.617188 68.175781 21.976562 63.164062 C 25.320312 58.152344 24.921875 51.644531 23.378906 48.671875 L 23.324219 48.5625 L 25.175781 47.46875 C 26.375 46.757812 27.554688 46.101562 28.589844 45.535156 C 28.007812 47.121094 27.589844 49 27.375 51.734375 C 27.117188 54.941406 28.425781 59.097656 30.152344 60.738281 C 30.914062 61.449219 31.824219 61.46875 32.386719 61.46875 C 34.382812 61.46875 35.292969 59.808594 36.292969 57.824219 C 37.527344 55.398438 38.617188 52.589844 38.617188 52.589844 C 38.617188 52.589844 37.253906 60.191406 40.976562 60.191406 C 42.339844 60.191406 43.703125 58.425781 44.320312 57.511719 L 44.320312 57.53125 C 44.320312 57.53125 44.355469 57.476562 44.429688 57.347656 C 44.503906 57.234375 44.578125 57.121094 44.648438 57.003906 L 44.648438 56.964844 C 45.191406 56.019531 46.410156 53.847656 48.226562 50.257812 C 50.570312 45.628906 52.820312 39.832031 52.820312 39.832031 C 52.820312 39.832031 53.039062 41.253906 53.710938 43.585938 C 54.109375 44.972656 54.984375 46.484375 55.65625 47.960938 C 55.109375 48.726562 54.78125 49.164062 54.78125 49.164062 L 54.800781 49.183594 C 54.363281 49.765625 53.875 50.386719 53.367188 51.003906 C 51.511719 53.230469 49.296875 55.761719 49.007812 56.492188 C 48.660156 57.347656 48.734375 57.988281 49.40625 58.496094 C 49.898438 58.863281 50.769531 58.933594 51.695312 58.863281 C 53.367188 58.753906 54.527344 58.332031 55.109375 58.078125 C 56.019531 57.75 57.054688 57.257812 58.050781 56.527344 C 59.867188 55.179688 60.976562 53.265625 60.867188 50.714844 C 60.8125 49.308594 60.359375 47.925781 59.796875 46.613281 C 59.960938 46.375 60.125 46.136719 60.285156 45.882812 C 63.15625 41.671875 65.371094 37.042969 65.371094 37.042969 C 65.371094 37.042969 65.589844 38.464844 66.261719 40.796875 C 66.609375 41.980469 67.296875 43.277344 67.914062 44.550781 C 65.226562 46.757812 63.539062 49.308594 62.957031 50.988281 C 61.886719 54.085938 62.71875 55.488281 64.300781 55.816406 C 65.007812 55.964844 66.027344 55.636719 66.789062 55.308594 C 67.734375 54.996094 68.878906 54.46875 69.929688 53.683594 C 71.746094 52.335938 73.492188 50.457031 73.402344 47.925781 C 73.347656 46.757812 73.039062 45.609375 72.621094 44.515625 C 74.910156 43.566406 77.871094 43.019531 81.628906 43.476562 C 89.710938 44.425781 91.3125 49.492188 91.003906 51.605469 C 90.691406 53.722656 89.003906 54.886719 88.441406 55.253906 C 87.878906 55.597656 87.695312 55.726562 87.75 55.980469 C 87.824219 56.367188 88.078125 56.347656 88.566406 56.273438 C 89.238281 56.164062 92.816406 54.542969 92.964844 50.640625 C 93.179688 45.628906 88.441406 40.160156 80.03125 40.214844 Z M 17.691406 61.304688 C 15.023438 64.238281 11.261719 65.351562 9.664062 64.402344 C 7.9375 63.402344 8.609375 59.082031 11.898438 55.964844 C 13.894531 54.066406 16.492188 52.316406 18.199219 51.242188 C 18.582031 51.003906 19.164062 50.660156 19.851562 50.238281 C 19.960938 50.167969 20.035156 50.128906 20.035156 50.128906 C 20.160156 50.058594 20.308594 49.964844 20.453125 49.875 C 21.667969 54.324219 20.507812 58.222656 17.691406 61.304688 Z M 37.21875 47.980469 C 36.292969 50.257812 34.328125 56.109375 33.148438 55.78125 C 32.132812 55.507812 31.515625 51.078125 32.949219 46.703125 C 33.675781 44.496094 35.21875 41.871094 36.128906 40.851562 C 37.597656 39.210938 39.199219 38.664062 39.597656 39.339844 C 40.070312 40.214844 37.800781 46.558594 37.21875 47.980469 Z M 53.328125 55.707031 C 52.929688 55.910156 52.566406 56.054688 52.402344 55.945312 C 52.277344 55.871094 52.566406 55.597656 52.566406 55.597656 C 52.566406 55.597656 54.582031 53.429688 55.382812 52.425781 C 55.835938 51.84375 56.382812 51.167969 56.960938 50.402344 L 56.960938 50.621094 C 56.960938 53.246094 54.457031 54.996094 53.328125 55.707031 Z M 65.753906 52.863281 C 65.464844 52.644531 65.5 51.972656 66.480469 49.855469 C 66.863281 49.019531 67.734375 47.613281 69.242188 46.285156 C 69.421875 46.832031 69.53125 47.359375 69.515625 47.851562 C 69.496094 51.132812 67.171875 52.355469 65.753906 52.863281 Z M 65.753906 52.863281 "/>
</g>
</svg>
